HIERARCHY
ROOT Hips
{
    OFFSET 0.000000 0.000000 0.000000
    CHANNELS 6 Xposition Yposition Zposition Zrotation Xrotation Yrotation
    JOINT Spine
    {
        OFFSET -0.000000 14.517291 0.000000
        CHANNELS 3 Zrotation Xrotation Yrotation
        JOINT Spine1
        {
            OFFSET -0.000000 37.558300 0.000000
            CHANNELS 3 Zrotation Xrotation Yrotation
            JOINT Neck
            {
                OFFSET -0.000000 37.404057 3.400369
                CHANNELS 3 Zrotation Xrotation Yrotation
                JOINT Head
                {
                    OFFSET -0.000000 24.785618 -3.540803
                    CHANNELS 3 Zrotation Xrotation Yrotation
                    End Site
                    {
                        OFFSET -0.000000 35.408028 0.000000
                    }
                }
            }
            JOINT LeftShoulder
            {
                OFFSET 6.992933 33.973492 -0.192664
                CHANNELS 3 Zrotation Xrotation Yrotation
                JOINT LeftArm
                {
                    OFFSET 21.527611 0.000000 0.000000
                    CHANNELS 3 Zrotation Xrotation Yrotation
                    JOINT LeftForeArm
                    {
                        OFFSET 56.353916 0.000000 0.000000
                        CHANNELS 3 Zrotation Xrotation Yrotation
                        JOINT LeftHand
                        {
                            OFFSET 47.774071 0.000000 0.000000
                            CHANNELS 3 Zrotation Xrotation Yrotation
                            End Site
                            {
                                OFFSET 26.556021 0.000000 0.000000
                            }
                        }
                    }
                }
            }
            JOINT RightShoulder
            {
                OFFSET -7.065357 33.973492 -0.192664
                CHANNELS 3 Zrotation Xrotation Yrotation
                JOINT RightArm
                {
                    OFFSET -21.527611 0.000000 0.000000
                    CHANNELS 3 Zrotation Xrotation Yrotation
                    JOINT RightForeArm
                    {
                        OFFSET -56.353916 0.000000 0.000000
                        CHANNELS 3 Zrotation Xrotation Yrotation
                        JOINT RightHand
                        {
                            OFFSET -47.774071 0.000000 0.000000
                            CHANNELS 3 Zrotation Xrotation Yrotation
                            End Site
                            {
                                OFFSET -26.556021 0.000000 0.000000
                            }
                        }
                    }
                }
            }
        }
    }
    JOINT LeftUpLeg
    {
        OFFSET 17.704014 0.000000 0.000000
        CHANNELS 3 Zrotation Xrotation Yrotation
        JOINT LeftLeg
        {
            OFFSET -0.000000 -81.181816 0.000000
            CHANNELS 3 Zrotation Xrotation Yrotation
            JOINT LeftFoot
            {
                OFFSET -0.000000 -62.821102 0.000000
                CHANNELS 3 Zrotation Xrotation Yrotation
                JOINT LeftToeBase
                {
                    OFFSET -0.000000 -11.507608 26.556021
                    CHANNELS 3 Zrotation Xrotation Yrotation
                    End Site
                    {
                        OFFSET -0.000000 0.000000 7.081605
                    }
                }
            }
        }
    }
    JOINT RightUpLeg
    {
        OFFSET -17.704014 0.000000 0.000000
        CHANNELS 3 Zrotation Xrotation Yrotation
        JOINT RightLeg
        {
            OFFSET -0.000000 -81.181816 0.000000
            CHANNELS 3 Zrotation Xrotation Yrotation
            JOINT RightFoot
            {
                OFFSET -0.000000 -62.821102 0.000000
                CHANNELS 3 Zrotation Xrotation Yrotation
                JOINT RightToeBase
                {
                    OFFSET -0.000000 -11.507608 26.556021
                    CHANNELS 3 Zrotation Xrotation Yrotation
                    End Site
                    {
                        OFFSET -0.000000 0.000000 7.081605
                    }
                }
            }
        }
    }
}
MOTION
Frames:    10
Frame Time:    0.008333
32.236134    156.690414    -26.490751    1.892970    -2.986573    -93.909019    1.967674    -0.895101    -4.547259    2.230910    -0.401834    -1.513165    8.425006    -3.909392    10.174938    -4.814581    10.272295    8.796077    11.561906    -2.678838    -17.030823    -7.737907    3.356262    -4.728745    29.144432    -39.963017    16.013258    -19.286037    -38.439957    -35.068047    -9.996127    4.307817    -1.603203    34.700382    9.124971    78.669800    17.792519    12.141332    107.857269    4.002163    -12.006105    19.423197    17.860674    -5.440236    24.016603    -13.573800    25.463537    11.020478    -5.895106    -12.095199    46.304165    0.000000    0.000000    0.000000    -21.485676    -17.449883    21.598883    3.776174    16.799973    6.557140    13.043690    -5.967425    -4.835928    0.000000    0.000000    0.000000    
32.180607    156.700394    -26.503138    1.880051    -2.997804    -93.881149    1.974958    -0.932535    -4.549160    2.220447    -0.405065    -1.513972    8.383472    -3.913864    10.094906    -4.766407    10.292416    8.723312    11.564698    -2.648985    -17.076040    -7.694000    3.358889    -4.793406    29.125692    -39.929741    16.010271    -19.271452    -38.406048    -35.073315    -9.969329    4.323880    -1.637529    34.750488    9.092375    78.619400    17.847233    12.270947    107.811722    3.976063    -11.938827    19.409630    17.834835    -5.399431    24.008032    -13.547268    25.423666    11.019242    -5.926059    -12.077856    46.262863    0.000000    0.000000    0.000000    -21.503950    -17.412626    21.577227    3.784032    16.820997    6.566076    13.038460    -6.007356    -4.821848    0.000000    0.000000    0.000000    
32.131058    156.707855    -26.513678    1.876391    -3.012521    -93.857971    1.979689    -0.933971    -4.576587    2.231692    -0.465322    -1.521939    8.313855    -3.940827    10.045348    -4.711895    10.359398    8.688151    11.539021    -2.618161    -17.038132    -7.663334    3.413830    -4.883984    29.134357    -39.930321    15.986191    -19.253544    -38.408272    -35.066467    -9.959427    4.345751    -1.640125    34.771721    9.090753    78.602455    17.882475    12.352202    107.774261    3.944523    -11.896087    19.416403    17.808613    -5.369776    24.010578    -13.521579    25.390223    11.007887    -5.972045    -12.083899    46.237873    0.000000    0.000000    0.000000    -21.521837    -17.392874    21.544107    3.787432    16.848032    6.567357    13.025874    -6.034039    -4.798162    0.000000    0.000000    0.000000    
32.078964    156.713943    -26.523024    1.868902    -3.023385    -93.830025    1.985552    -1.005258    -4.546896    2.223234    -0.412889    -1.513484    8.283484    -3.987249    9.973280    -4.682963    10.415310    8.619045    11.533724    -2.610815    -17.133059    -7.624187    3.361741    -4.923365    29.086271    -39.897297    15.923728    -19.239590    -38.361454    -35.053013    -9.918801    4.352104    -1.693523    34.782742    9.063936    78.569710    17.917994    12.419027    107.736839    3.926358    -11.865557    19.434069    17.785625    -5.340703    24.001673    -13.495525    25.362829    10.990236    -6.008066    -12.079082    46.224751    0.000000    0.000000    0.000000    -21.536667    -17.363256    21.521555    3.787497    16.873264    6.581228    13.006257    -6.071016    -4.785703    0.000000    0.000000    0.000000    
32.027115    156.718369    -26.531395    1.860749    -3.035675    -93.800575    2.001805    -0.997775    -4.567355    2.214648    -0.468723    -1.519248    8.252669    -4.041695    9.941847    -4.663439    10.511458    8.593001    11.536959    -2.584872    -17.092243    -7.605650    3.305740    -5.025385    29.032654    -39.887959    15.853847    -19.315134    -38.300644    -35.128792    -9.891584    4.387393    -1.711737    34.769947    9.067373    78.593002    17.930077    12.452458    107.712189    3.890863    -11.844315    19.426174    17.763769    -5.314608    23.991175    -13.478584    25.336386    10.982430    -6.036782    -12.076740    46.206635    0.000000    0.000000    0.000000    -21.549688    -17.337128    21.509047    3.789471    16.910410    6.578468    12.991551    -6.116395    -4.757067    0.000000    0.000000    0.000000    
31.980824    156.721558    -26.542749    1.853718    -3.043724    -93.769608    1.999949    -1.015423    -4.567077    2.234936    -0.484327    -1.518871    8.224386    -4.078945    9.902593    -4.664777    10.576413    8.557271    11.532772    -2.560383    -17.102924    -7.614851    3.333285    -5.091830    29.047106    -39.889313    15.809247    -19.349957    -38.277363    -35.184071    -9.874217    4.408900    -1.725447    34.750664    9.072689    78.590096    17.932640    12.438227    107.705872    3.891834    -11.860137    19.406813    17.746931    -5.294943    23.977573    -13.460216    25.315945    10.985703    -6.057850    -12.071541    46.187737    0.000000    0.000000    0.000000    -21.556871    -17.321957    21.513607    3.804840    16.960579    6.573394    12.971342    -6.155198    -4.776074    0.000000    0.000000    0.000000    
31.935314    156.720474    -26.554695    1.844459    -3.048497    -93.737915    2.015261    -1.039862    -4.561032    2.223697    -0.474742    -1.517247    8.212952    -4.133399    9.866550    -4.662913    10.630718    8.520222    11.543102    -2.554473    -17.119886    -7.612941    3.288432    -5.156058    29.010284    -39.860840    15.724497    -19.286018    -38.242241    -35.187996    -9.849164    4.422001    -1.753011    34.742245    9.082826    78.599190    17.924599    12.420174    107.702866    3.874472    -11.868717    19.392859    17.741558    -5.271643    23.933916    -13.470640    25.291880    11.004642    -6.073658    -12.071774    46.178314    0.000000    0.000000    0.000000    -21.556730    -17.302868    21.518547    3.804291    17.012394    6.571865    12.969872    -6.206024    -4.778031    0.000000    0.000000    0.000000    
31.892780    156.717621    -26.563416    1.836715    -3.059647    -93.702385    2.020000    -1.067636    -4.563482    2.229224    -0.457438    -1.518554    8.187661    -4.196137    9.837276    -4.663960    10.693711    8.492449    11.533434    -2.534698    -17.117966    -7.610689    3.260726    -5.233681    29.009611    -39.834705    15.677031    -19.344450    -38.176834    -35.280655    -9.849074    4.444152    -1.766973    34.751629    9.077681    78.619598    17.934902    12.406331    107.684975    3.888741    -11.885993    19.411449    17.729189    -5.251490    23.877306    -13.488041    25.263418    11.036651    -6.080713    -12.065398    46.169785    0.000000    0.000000    0.000000    -21.562157    -17.291548    21.523552    3.805438    17.073858    6.571050    12.943053    -6.250597    -4.780524    0.000000    0.000000    0.000000    
31.856411    156.712082    -26.569519    1.823164    -3.057241    -93.670601    2.042645    -1.076750    -4.562388    2.229674    -0.444744    -1.518583    8.183402    -4.250035    9.809264    -4.698969    10.736279    8.460226    11.514748    -2.536408    -17.131882    -7.596205    3.203096    -5.290400    28.977499    -39.789593    15.617787    -19.388739    -38.092453    -35.353302    -9.848999    4.455439    -1.775521    34.744431    9.086587    78.641533    17.913675    12.346959    107.685059    3.888098    -11.914637    19.413368    17.729313    -5.233030    23.824051    -13.500019    25.255077    11.044472    -6.087622    -12.086545    46.181705    0.000000    0.000000    0.000000    -21.556108    -17.279171    21.544933    3.813535    17.137785    6.575364    12.928494    -6.296401    -4.787337    0.000000    0.000000    0.000000    
31.819132    156.702087    -26.574474    1.809702    -3.065493    -93.628227    2.049611    -1.087382    -4.565919    2.235947    -0.429818    -1.520083    8.177409    -4.293118    9.781240    -4.735215    10.758088    8.428202    11.484440    -2.532238    -17.136003    -7.563803    3.100775    -5.366648    28.929020    -39.748611    15.556581    -19.414701    -38.022854    -35.370853    -9.861979    4.466506    -1.787495    34.775635    9.085028    78.664001    17.916449    12.330028    107.672798    3.870017    -11.933347    19.401363    17.717091    -5.222581    23.764509    -13.506419    25.247217    11.078143    -6.090824    -12.092926    46.165844    0.000000    0.000000    0.000000    -21.563885    -17.262812    21.559681    3.823699    17.203293    6.531289    12.919550    -6.346532    -4.770145    0.000000    0.000000    0.000000    
